<svg xmlns="http://www.w3.org/2000/svg" xmlns:xlink="http://www.w3.org/1999/xlink" width="500" height="300" viewBox="0 0 500 300">
  <defs>
    <clipPath id="clip-custom_1">
      <rect width="500" height="300"/>
    </clipPath>
  </defs>
  <g id="custom_1" data-name="custom – 1" clip-path="url(#clip-custom_1)">
    <rect width="500" height="300" fill="#fff"/>
    <path id="Exclusion_1" data-name="Exclusion 1" d="M293.73,361.16a106.462,106.462,0,0,1-19.792-1.8A91.949,91.949,0,0,1,239,344.92a104.043,104.043,0,0,1-15.145-12.632,105.949,105.949,0,0,1-11.5-13.637,94.266,94.266,0,0,1-8.579-14.858h9.859v-15.61c1.63,1.15,5.4,1.734,11.2,1.734a27.032,27.032,0,1,0-27.028-27.027v23.536a104,104,0,0,1-2.689-23.88,105.779,105.779,0,0,1,1.8-19.677,91.883,91.883,0,0,1,14.37-34.8A106.839,106.839,0,0,1,239,180.364a92.871,92.871,0,0,1,16.694-8.981,93.829,93.829,0,0,1,18.243-5.389,106.931,106.931,0,0,1,19.792-1.8,105.772,105.772,0,0,1,19.677,1.8,91.884,91.884,0,0,1,34.8,14.37,104.387,104.387,0,0,1,15.128,12.574l7.119,7.119L329.59,240.925l-7.119-7.119a40.9,40.9,0,0,0-57.613,0,39.094,39.094,0,0,0-12,28.741,40.646,40.646,0,0,0,69.61,28.74l7.119-7.119,40.869,40.869-7.119,7.383a104.381,104.381,0,0,1-15.128,12.574,91.879,91.879,0,0,1-34.8,14.37A105.775,105.775,0,0,1,293.73,361.16Zm-229.395,0H6.592V262.547a105.772,105.772,0,0,1,1.8-19.677,91.884,91.884,0,0,1,14.37-34.8,106.849,106.849,0,0,1,27.719-27.7,92.873,92.873,0,0,1,16.694-8.981,93.836,93.836,0,0,1,18.243-5.389,106.934,106.934,0,0,1,19.792-1.8,105.767,105.767,0,0,1,19.676,1.8,91.884,91.884,0,0,1,34.8,14.37,104.391,104.391,0,0,1,15.128,12.574l7.119,7.119-40.869,40.869-7.119-7.119a40.9,40.9,0,0,0-57.613,0,39.1,39.1,0,0,0-12,28.741Zm139.438-57.367h-5.967V286.427a92.581,92.581,0,0,0,5.967,17.364Zm208.2-13.875h0a36.491,36.491,0,0,1-12.428-1.978,25.292,25.292,0,0,1-9.395-5.934,26.1,26.1,0,0,1-7.877-19.114v-40.83H398.1v13.875h13.875v15.826H398.1v11.129a10.834,10.834,0,0,0,3.289,7.913c2.181,2.182,5.743,3.288,10.587,3.288v15.826Zm-59.178,0H336.974V262.891a25.984,25.984,0,0,1,7.877-19.078,25.3,25.3,0,0,1,9.395-5.908,36.647,36.647,0,0,1,12.429-1.969v15.826h-.008c-4.839,0-8.4,1.094-10.579,3.252a10.711,10.711,0,0,0-3.289,7.877v27.026Zm-58.382,0a27.155,27.155,0,0,1-10.425-1.978,28.012,28.012,0,0,1-14.634-14.67,28.308,28.308,0,0,1,0-20.749A27.914,27.914,0,0,1,283.993,237.9a28.435,28.435,0,0,1,20.795,0,26.645,26.645,0,0,1,16.585,24.986,26.107,26.107,0,0,1-7.877,19.114,25.927,25.927,0,0,1-19.078,7.913Zm0-38.156a10.9,10.9,0,0,0-7.914,3.253,10.714,10.714,0,0,0-3.288,7.877,11.165,11.165,0,1,0,22.33,0,11.165,11.165,0,0,0-11.129-11.129Zm-69.583,22.33a11.225,11.225,0,0,1-11.2-11.2,10.714,10.714,0,0,1,3.288-7.877,11.165,11.165,0,0,1,15.755,0,10.714,10.714,0,0,1,3.288,7.877,11.226,11.226,0,0,1-11.129,11.2Z" transform="translate(43 -121)" fill="#243153" stroke="rgba(0,0,0,0)" stroke-miterlimit="10" stroke-width="1"/>
  </g>
</svg>
